<svg width="189" height="149" viewBox="0 0 189 149" fill="none" xmlns="http://www.w3.org/2000/svg">
<g id="DFILL">
<rect id="Rectangle 172" width="28" height="27" transform="matrix(-1 0 0 1 162 107)" fill="white"/>
<rect id="Rectangle 173" width="55" height="28" transform="matrix(-1 0 0 1 189 121)" fill="white"/>
<rect id="Rectangle 180" width="27" height="27" transform="matrix(-1 0 0 1 189 108)" fill="white"/>
<rect id="Rectangle 174" width="28" height="27" transform="matrix(-1 0 0 1 162 82)" fill="white"/>
<rect id="Rectangle 175" width="27" height="27" transform="matrix(-1 0 0 1 162 55)" fill="white"/>
<g id="Rectangle 171">
<rect width="92" height="68" transform="matrix(-1 0 0 1 135 81)" fill="white"/>
<rect width="92" height="68" transform="matrix(-1 0 0 1 135 81)" fill="white"/>
</g>
<g id="Rectangle 170">
<rect width="81" height="81" transform="matrix(-1 0 0 1 135 0)" fill="white"/>
<rect width="81" height="81" transform="matrix(-1 0 0 1 135 0)" fill="white"/>
</g>
<rect id="Rectangle 181" width="51" height="41" transform="matrix(-1 0 0 1 51 108)" fill="white"/>
<rect id="Rectangle 182" width="27" height="27" transform="matrix(-1 0 0 1 54 81)" fill="white"/>
<rect id="Rectangle 183" width="27" height="27" transform="matrix(-1 0 0 1 54 54)" fill="white"/>
</g>
</svg>
