<svg width="191" height="56" viewBox="0 0 191 56" fill="none" xmlns="http://www.w3.org/2000/svg">
<g id="GIRLH">
<path id="girl" d="M13.8794 31.2578C13.8794 29.6823 14.0682 28.237 14.4458 26.9219C14.8364 25.5938 15.3963 24.4544 16.1255 23.5039C16.8546 22.5534 17.74 21.8112 18.7817 21.2773C19.8234 20.7435 21.0018 20.4766 22.3169 20.4766C23.1632 20.4766 23.938 20.5742 24.6411 20.7695C25.3572 20.9648 26.0018 21.2513 26.5747 21.6289C26.8872 21.8242 27.1801 22.0521 27.4536 22.3125C27.74 22.5729 28.007 22.8594 28.2544 23.1719L28.4301 20.8672H31.7114V41.5508C31.7114 42.944 31.49 44.181 31.0473 45.2617C30.6176 46.3424 30.0122 47.2604 29.2309 48.0156C28.4367 48.7708 27.4926 49.3438 26.3989 49.7344C25.3051 50.125 24.0942 50.3203 22.7661 50.3203C22.2192 50.3203 21.5942 50.2552 20.8911 50.125C20.188 50.0078 19.4783 49.806 18.7622 49.5195C18.033 49.2461 17.3299 48.875 16.6528 48.4062C15.9887 47.9375 15.4158 47.3581 14.9341 46.668L16.8091 44.5C17.2518 45.0339 17.7075 45.4831 18.1762 45.8477C18.645 46.2253 19.1202 46.5247 19.602 46.7461C20.0838 46.9674 20.5656 47.1237 21.0473 47.2148C21.5291 47.319 22.0109 47.3711 22.4926 47.3711C23.352 47.3711 24.1268 47.2474 24.8169 47C25.507 46.7526 26.0994 46.388 26.5942 45.9062C27.076 45.4375 27.4471 44.8516 27.7075 44.1484C27.9679 43.4453 28.0981 42.638 28.0981 41.7266V39.9102C27.8247 40.2227 27.5317 40.5091 27.2192 40.7695C26.9197 41.0299 26.5942 41.2578 26.2426 41.4531C25.6958 41.7526 25.0903 41.9805 24.4262 42.1367C23.7622 42.306 23.046 42.3906 22.2778 42.3906C20.9887 42.3906 19.8234 42.1172 18.7817 41.5703C17.74 41.0234 16.8611 40.2682 16.145 39.3047C15.4158 38.3411 14.8559 37.2083 14.4653 35.9062C14.0747 34.5911 13.8794 33.1784 13.8794 31.668V31.2578ZM17.4926 31.668C17.4926 32.6966 17.5968 33.6732 17.8051 34.5977C18.0265 35.5221 18.3716 36.3359 18.8403 37.0391C19.296 37.7422 19.882 38.3021 20.5981 38.7188C21.3143 39.1224 22.1736 39.3242 23.1762 39.3242C23.8012 39.3242 24.3611 39.2526 24.8559 39.1094C25.3637 38.9531 25.8195 38.7383 26.2231 38.4648C26.6137 38.1914 26.9653 37.8659 27.2778 37.4883C27.5903 37.1107 27.8637 36.694 28.0981 36.2383V26.5508C27.8637 26.1081 27.5903 25.7044 27.2778 25.3398C26.9653 24.9753 26.6072 24.6562 26.2036 24.3828C25.7999 24.1224 25.3507 23.9206 24.8559 23.7773C24.3611 23.6211 23.8143 23.543 23.2153 23.543C22.1997 23.543 21.3273 23.7513 20.5981 24.168C19.882 24.5846 19.296 25.1445 18.8403 25.8477C18.3716 26.5638 18.0265 27.3906 17.8051 28.3281C17.5968 29.2526 17.4926 30.2292 17.4926 31.2578V31.668ZM63.1333 20.8672H73.9341V38.875H80.8286V42H63.1333V38.875H70.3208V24.0117H63.1333V20.8672ZM69.852 15.3203C69.852 15.0078 69.8976 14.7148 69.9887 14.4414C70.0929 14.168 70.2492 13.9336 70.4575 13.7383C70.6268 13.569 70.8416 13.4388 71.102 13.3477C71.3755 13.2435 71.6814 13.1914 72.02 13.1914C72.3585 13.1914 72.658 13.2435 72.9184 13.3477C73.1788 13.4388 73.3937 13.569 73.563 13.7383C73.7713 13.9206 73.9275 14.1484 74.0317 14.4219C74.1359 14.6953 74.188 14.9948 74.188 15.3203C74.188 15.9062 74.0057 16.3945 73.6411 16.7852C73.2765 17.1758 72.7361 17.3711 72.02 17.3711C71.2908 17.3711 70.7439 17.1758 70.3794 16.7852C70.0278 16.3945 69.852 15.9062 69.852 15.3203ZM124.438 20.4766C125.102 20.4766 125.792 20.5221 126.508 20.6133C127.237 20.7044 127.784 20.8281 128.149 20.9844L127.661 24.5195C126.957 24.3633 126.287 24.2526 125.649 24.1875C125.024 24.1094 124.366 24.0703 123.676 24.0703C122.791 24.0703 121.99 24.181 121.274 24.4023C120.558 24.6107 119.933 24.9232 119.399 25.3398C118.917 25.7044 118.494 26.1536 118.129 26.6875C117.778 27.2083 117.485 27.7943 117.25 28.4453V42H113.618V20.8672H117.055L117.211 23.6992L117.231 24.2266C118.09 23.0677 119.119 22.1562 120.317 21.4922C121.528 20.8151 122.901 20.4766 124.438 20.4766ZM159.18 12H169.981V38.875H176.875V42H159.18V38.875H166.368V15.1445H159.18V12Z" fill="#E66573"/>
<path id="girl_2" d="M23.1213 31.2578C23.1213 29.6823 23.3101 28.237 23.6877 26.9219C24.0783 25.5938 24.6382 24.4544 25.3674 23.5039C26.0966 22.5534 26.982 21.8112 28.0237 21.2773C29.0653 20.7435 30.2437 20.4766 31.5588 20.4766C32.4052 20.4766 33.1799 20.5742 33.883 20.7695C34.5992 20.9648 35.2437 21.2513 35.8166 21.6289C36.1291 21.8242 36.4221 22.0521 36.6955 22.3125C36.982 22.5729 37.2489 22.8594 37.4963 23.1719L37.6721 20.8672H40.9533V41.5508C40.9533 42.944 40.732 44.181 40.2893 45.2617C39.8596 46.3424 39.2541 47.2604 38.4729 48.0156C37.6786 48.7708 36.7346 49.3438 35.6408 49.7344C34.5471 50.125 33.3362 50.3203 32.008 50.3203C31.4612 50.3203 30.8362 50.2552 30.133 50.125C29.4299 50.0078 28.7203 49.806 28.0041 49.5195C27.275 49.2461 26.5718 48.875 25.8947 48.4062C25.2307 47.9375 24.6578 47.3581 24.176 46.668L26.051 44.5C26.4937 45.0339 26.9494 45.4831 27.4182 45.8477C27.8869 46.2253 28.3622 46.5247 28.844 46.7461C29.3257 46.9674 29.8075 47.1237 30.2893 47.2148C30.771 47.319 31.2528 47.3711 31.7346 47.3711C32.594 47.3711 33.3687 47.2474 34.0588 47C34.7489 46.7526 35.3414 46.388 35.8362 45.9062C36.3179 45.4375 36.689 44.8516 36.9494 44.1484C37.2098 43.4453 37.3401 42.638 37.3401 41.7266V39.9102C37.0666 40.2227 36.7737 40.5091 36.4612 40.7695C36.1617 41.0299 35.8362 41.2578 35.4846 41.4531C34.9377 41.7526 34.3322 41.9805 33.6682 42.1367C33.0041 42.306 32.288 42.3906 31.5197 42.3906C30.2307 42.3906 29.0653 42.1172 28.0237 41.5703C26.982 41.0234 26.1031 40.2682 25.3869 39.3047C24.6578 38.3411 24.0979 37.2083 23.7072 35.9062C23.3166 34.5911 23.1213 33.1784 23.1213 31.668V31.2578ZM26.7346 31.668C26.7346 32.6966 26.8388 33.6732 27.0471 34.5977C27.2684 35.5221 27.6135 36.3359 28.0822 37.0391C28.538 37.7422 29.1239 38.3021 29.8401 38.7188C30.5562 39.1224 31.4156 39.3242 32.4182 39.3242C33.0432 39.3242 33.6031 39.2526 34.0979 39.1094C34.6057 38.9531 35.0614 38.7383 35.4651 38.4648C35.8557 38.1914 36.2072 37.8659 36.5197 37.4883C36.8322 37.1107 37.1057 36.694 37.3401 36.2383V26.5508C37.1057 26.1081 36.8322 25.7044 36.5197 25.3398C36.2072 24.9753 35.8492 24.6562 35.4455 24.3828C35.0419 24.1224 34.5927 23.9206 34.0979 23.7773C33.6031 23.6211 33.0562 23.543 32.4572 23.543C31.4416 23.543 30.5692 23.7513 29.8401 24.168C29.1239 24.5846 28.538 25.1445 28.0822 25.8477C27.6135 26.5638 27.2684 27.3906 27.0471 28.3281C26.8388 29.2526 26.7346 30.2292 26.7346 31.2578V31.668ZM72.3752 20.8672H83.176V38.875H90.0705V42H72.3752V38.875H79.5627V24.0117H72.3752V20.8672ZM79.094 15.3203C79.094 15.0078 79.1395 14.7148 79.2307 14.4414C79.3348 14.168 79.4911 13.9336 79.6994 13.7383C79.8687 13.569 80.0835 13.4388 80.344 13.3477C80.6174 13.2435 80.9234 13.1914 81.2619 13.1914C81.6005 13.1914 81.9 13.2435 82.1604 13.3477C82.4208 13.4388 82.6356 13.569 82.8049 13.7383C83.0132 13.9206 83.1695 14.1484 83.2737 14.4219C83.3778 14.6953 83.4299 14.9948 83.4299 15.3203C83.4299 15.9062 83.2476 16.3945 82.883 16.7852C82.5184 17.1758 81.9781 17.3711 81.2619 17.3711C80.5328 17.3711 79.9859 17.1758 79.6213 16.7852C79.2697 16.3945 79.094 15.9062 79.094 15.3203ZM133.68 20.4766C134.344 20.4766 135.034 20.5221 135.75 20.6133C136.479 20.7044 137.026 20.8281 137.391 20.9844L136.903 24.5195C136.199 24.3633 135.529 24.2526 134.891 24.1875C134.266 24.1094 133.608 24.0703 132.918 24.0703C132.033 24.0703 131.232 24.181 130.516 24.4023C129.8 24.6107 129.175 24.9232 128.641 25.3398C128.159 25.7044 127.736 26.1536 127.371 26.6875C127.02 27.2083 126.727 27.7943 126.492 28.4453V42H122.86V20.8672H126.297L126.453 23.6992L126.473 24.2266C127.332 23.0677 128.361 22.1562 129.559 21.4922C130.77 20.8151 132.143 20.4766 133.68 20.4766ZM168.422 12H179.223V38.875H186.117V42H168.422V38.875H175.61V15.1445H168.422V12Z" fill="#F27EB8"/>
<path id="girl_3" d="M5.25363 31.2578C5.25363 29.6823 5.44243 28.237 5.82004 26.9219C6.21066 25.5938 6.77056 24.4544 7.49973 23.5039C8.22889 22.5534 9.11431 21.8112 10.156 21.2773C11.1976 20.7435 12.376 20.4766 13.6911 20.4766C14.5375 20.4766 15.3122 20.5742 16.0154 20.7695C16.7315 20.9648 17.376 21.2513 17.9489 21.6289C18.2614 21.8242 18.5544 22.0521 18.8279 22.3125C19.1143 22.5729 19.3812 22.8594 19.6286 23.1719L19.8044 20.8672H23.0857V41.5508C23.0857 42.944 22.8643 44.181 22.4216 45.2617C21.9919 46.3424 21.3864 47.2604 20.6052 48.0156C19.8109 48.7708 18.8669 49.3438 17.7732 49.7344C16.6794 50.125 15.4685 50.3203 14.1404 50.3203C13.5935 50.3203 12.9685 50.2552 12.2654 50.125C11.5622 50.0078 10.8526 49.806 10.1364 49.5195C9.40728 49.2461 8.70415 48.875 8.02707 48.4062C7.36301 47.9375 6.79009 47.3581 6.30832 46.668L8.18332 44.5C8.62603 45.0339 9.08176 45.4831 9.55051 45.8477C10.0193 46.2253 10.4945 46.5247 10.9763 46.7461C11.4581 46.9674 11.9398 47.1237 12.4216 47.2148C12.9034 47.319 13.3851 47.3711 13.8669 47.3711C14.7263 47.3711 15.501 47.2474 16.1911 47C16.8812 46.7526 17.4737 46.388 17.9685 45.9062C18.4502 45.4375 18.8213 44.8516 19.0818 44.1484C19.3422 43.4453 19.4724 42.638 19.4724 41.7266V39.9102C19.1989 40.2227 18.906 40.5091 18.5935 40.7695C18.294 41.0299 17.9685 41.2578 17.6169 41.4531C17.07 41.7526 16.4646 41.9805 15.8005 42.1367C15.1364 42.306 14.4203 42.3906 13.6521 42.3906C12.363 42.3906 11.1976 42.1172 10.156 41.5703C9.11431 41.0234 8.2354 40.2682 7.51926 39.3047C6.79009 38.3411 6.23019 37.2083 5.83957 35.9062C5.44894 34.5911 5.25363 33.1784 5.25363 31.668V31.2578ZM8.86691 31.668C8.86691 32.6966 8.97108 33.6732 9.17941 34.5977C9.40077 35.5221 9.74582 36.3359 10.2146 37.0391C10.6703 37.7422 11.2562 38.3021 11.9724 38.7188C12.6885 39.1224 13.5479 39.3242 14.5505 39.3242C15.1755 39.3242 15.7354 39.2526 16.2302 39.1094C16.738 38.9531 17.1937 38.7383 17.5974 38.4648C17.988 38.1914 18.3396 37.8659 18.6521 37.4883C18.9646 37.1107 19.238 36.694 19.4724 36.2383V26.5508C19.238 26.1081 18.9646 25.7044 18.6521 25.3398C18.3396 24.9753 17.9815 24.6562 17.5779 24.3828C17.1742 24.1224 16.725 23.9206 16.2302 23.7773C15.7354 23.6211 15.1885 23.543 14.5896 23.543C13.5739 23.543 12.7015 23.7513 11.9724 24.168C11.2562 24.5846 10.6703 25.1445 10.2146 25.8477C9.74582 26.5638 9.40077 27.3906 9.17941 28.3281C8.97108 29.2526 8.86691 30.2292 8.86691 31.2578V31.668ZM54.5075 20.8672H65.3083V38.875H72.2029V42H54.5075V38.875H61.695V24.0117H54.5075V20.8672ZM61.2263 15.3203C61.2263 15.0078 61.2719 14.7148 61.363 14.4414C61.4672 14.168 61.6234 13.9336 61.8318 13.7383C62.001 13.569 62.2159 13.4388 62.4763 13.3477C62.7497 13.2435 63.0557 13.1914 63.3943 13.1914C63.7328 13.1914 64.0323 13.2435 64.2927 13.3477C64.5531 13.4388 64.768 13.569 64.9372 13.7383C65.1456 13.9206 65.3018 14.1484 65.406 14.4219C65.5101 14.6953 65.5622 14.9948 65.5622 15.3203C65.5622 15.9062 65.3799 16.3945 65.0154 16.7852C64.6508 17.1758 64.1104 17.3711 63.3943 17.3711C62.6651 17.3711 62.1182 17.1758 61.7536 16.7852C61.4021 16.3945 61.2263 15.9062 61.2263 15.3203ZM115.812 20.4766C116.476 20.4766 117.166 20.5221 117.883 20.6133C118.612 20.7044 119.159 20.8281 119.523 20.9844L119.035 24.5195C118.332 24.3633 117.661 24.2526 117.023 24.1875C116.398 24.1094 115.741 24.0703 115.051 24.0703C114.165 24.0703 113.364 24.181 112.648 24.4023C111.932 24.6107 111.307 24.9232 110.773 25.3398C110.291 25.7044 109.868 26.1536 109.504 26.6875C109.152 27.2083 108.859 27.7943 108.625 28.4453V42H104.992V20.8672H108.429L108.586 23.6992L108.605 24.2266C109.465 23.0677 110.493 22.1562 111.691 21.4922C112.902 20.8151 114.276 20.4766 115.812 20.4766ZM150.554 12H161.355V38.875H168.25V42H150.554V38.875H157.742V15.1445H150.554V12Z" fill="#CC0066"/>
</g>
</svg>
