<svg width="189" height="54" viewBox="0 0 189 54" fill="none" xmlns="http://www.w3.org/2000/svg">
<g id="GSCORE5">
<rect id="Rectangle 89" width="27" height="27" transform="matrix(-1 0 0 1 27 0)" fill="black"/>
<rect id="Rectangle 94" width="27" height="27" transform="matrix(-1 0 0 1 162 0)" fill="black"/>
<rect id="Rectangle 93" width="27" height="27" transform="matrix(-1 0 0 1 135 0)" fill="black"/>
<rect id="Rectangle 92" width="27" height="27" transform="matrix(-1 0 0 1 108 0)" fill="black"/>
<rect id="Rectangle 91" width="27" height="27" transform="matrix(-1 0 0 1 81 0)" fill="black"/>
<rect id="Rectangle 90" width="27" height="27" transform="matrix(-1 0 0 1 54 0)" fill="black"/>
<rect id="Rectangle 84" width="27" height="27" transform="matrix(-1 0 0 1 149 27)" fill="black"/>
<rect id="Rectangle 177" width="27" height="27" transform="matrix(-1 0 0 1 189 0)" fill="black"/>
<rect id="Rectangle 69" width="27" height="27" transform="matrix(-1 0 0 1 64 27)" fill="black"/>
</g>
</svg>
