<svg width="243" height="381" viewBox="0 0 243 381" fill="none" xmlns="http://www.w3.org/2000/svg">
<g id="pixelgirl">
<g id="GSCORE6">
<rect id="Rectangle 179" width="27" height="68" transform="matrix(-1 0 0 1 243 286)" fill="black"/>
</g>
<g id="GSCORE7">
<rect id="Rectangle 75" width="27" height="54" transform="matrix(-1 0 0 1 216 232)" fill="black"/>
</g>
<g id="GSCORE8">
<rect id="Rectangle 73" width="27" height="54" transform="matrix(-1 0 0 1 189 178)" fill="black"/>
</g>
<g id="GSCORE1">
<rect id="Rectangle 114" width="81" height="27" transform="matrix(-1 0 0 1 162 151)" fill="black"/>
</g>
<g id="HFILL">
<rect width="81" height="81" transform="matrix(-1 0 0 1 162 27)" fill="white"/>
<rect width="81" height="81" transform="matrix(-1 0 0 1 162 27)" fill="white"/>
</g>
<g id="GSCORE12">
<rect id="Rectangle 112" width="81" height="27" transform="matrix(-1 0 0 1 162 0)" fill="black"/>
</g>
<g id="GSCORE11">
<rect id="Rectangle 108" width="27" height="81" transform="matrix(-1 0 0 1 189 27)" fill="black"/>
</g>
<g id="GSCORE13">
<rect id="Rectangle 103" width="27" height="81" transform="matrix(-1 0 0 1 81 27)" fill="black"/>
</g>
<g id="GSCORE10">
<rect id="Rectangle 100" width="81" height="27" transform="matrix(-1 0 0 1 162 108)" fill="black"/>
</g>
<g id="GSCORE2">
<rect id="Rectangle 71" width="27" height="54" transform="matrix(-1 0 0 1 81 178)" fill="black"/>
</g>
<g id="GSCORE5">
<rect id="Rectangle 84" width="27" height="29" transform="matrix(-1 0 0 1 176 352)" fill="black"/>
<rect id="Rectangle 177" width="189" height="27" transform="matrix(-1 0 0 1 216 327)" fill="black"/>
<rect id="Rectangle 69" width="27" height="29" transform="matrix(-1 0 0 1 91 352)" fill="black"/>
</g>
<g id="GSCORE4">
<rect id="Rectangle 65" width="27" height="68" transform="matrix(-1 0 0 1 27 286)" fill="black"/>
</g>
<g id="GSCORE3">
<rect id="Rectangle 59" width="27" height="54" transform="matrix(-1 0 0 1 54 232)" fill="black"/>
</g>
<g id="DFILL">
<rect id="Rectangle 172" width="28" height="27" transform="matrix(-1 0 0 1 189 285)" fill="white"/>
<rect id="Rectangle 173" width="189" height="40" transform="matrix(-1 0 0 1 216 287)" fill="white"/>
<rect id="Rectangle 180" width="27" height="27" transform="matrix(-1 0 0 1 216 286)" fill="white"/>
<rect id="Rectangle 174" width="28" height="27" transform="matrix(-1 0 0 1 189 260)" fill="white"/>
<rect id="Rectangle 175" width="27" height="28" transform="matrix(-1 0 0 1 189 232)" fill="white"/>
<g id="Rectangle 171">
<rect width="81" height="149" transform="matrix(-1 0 0 1 162 178)" fill="white"/>
<rect width="81" height="149" transform="matrix(-1 0 0 1 162 178)" fill="white"/>
</g>
<g id="Rectangle 170">
<rect width="81" height="81" transform="matrix(-1 0 0 1 162 178)" fill="white"/>
<rect width="81" height="81" transform="matrix(-1 0 0 1 162 178)" fill="white"/>
</g>
<rect id="Rectangle 181" width="51" height="41" transform="matrix(-1 0 0 1 78 286)" fill="white"/>
<rect id="Rectangle 182" width="39" height="35" transform="matrix(-1 0 0 1 93 259)" fill="white"/>
<rect id="Rectangle 183" width="128" height="95" transform="matrix(-1 0 0 1 182 232)" fill="white"/>
</g>
<g id="GSCORE9">
<rect id="Rectangle 132" width="27" height="27" transform="matrix(-1 0 0 1 54 108)" fill="black"/>
<rect id="Rectangle 168" width="27" height="27" transform="matrix(-1 0 0 1 40 135)" fill="black"/>
<rect id="Rectangle 191" x="26" y="108" width="15" height="54" fill="black"/>
<rect id="Rectangle 133" width="27" height="27" transform="matrix(-1 0 0 1 216 108)" fill="black"/>
<rect id="Rectangle 81" width="27" height="27" transform="matrix(-1 0 0 1 228 135)" fill="black"/>
<rect id="Rectangle 191_2" x="201" y="108" width="15" height="54" fill="black"/>
</g>
</g>
</svg>
