<svg width="243" height="381" viewBox="0 0 243 381" fill="none" xmlns="http://www.w3.org/2000/svg">
<g id="pixelgirl">
<g id="GSCORE6">
<rect id="Rectangle 179" width="27" height="68" transform="matrix(-1 0 0 1 243 286)" fill="black"/>
</g>
<g id="GSCORE7">
<rect id="Rectangle 75" width="27" height="54" transform="matrix(-1 0 0 1 216 232)" fill="black"/>
</g>
<g id="GSCORE8">
<rect id="Rectangle 73" width="27" height="54" transform="matrix(-1 0 0 1 189 178)" fill="black"/>
</g>
<g id="GSCORE1">
<rect id="Rectangle 114" width="81" height="27" transform="matrix(-1 0 0 1 162 151)" fill="black"/>
</g>
<g id="HFILL">
<rect width="81" height="81" transform="matrix(-1 0 0 1 162 27)" fill="white"/>
<rect width="81" height="81" transform="matrix(-1 0 0 1 162 27)" fill="white"/>
</g>
<g id="GSCORE12">
<rect id="Rectangle 112" width="81" height="27" transform="matrix(-1 0 0 1 162 0)" fill="black"/>
</g>
<g id="GSCORE9">
<g id="Vector">
<path id="Vector 1" d="M13.5 161V135.5H26V108.5H53.5V135.5H41V161H13.5Z" fill="black" stroke="black"/>
</g>
<path id="Vector 2" d="M227 162H200V135H188V108H215V135H227V162Z" fill="black" stroke="black"/>
</g>
<g id="GSCORE11">
<rect id="Rectangle 108" width="27" height="81" transform="matrix(-1 0 0 1 189 27)" fill="black"/>
</g>
<g id="GSCORE13">
<rect id="Rectangle 103" width="27" height="81" transform="matrix(-1 0 0 1 81 27)" fill="black"/>
</g>
<g id="GSCORE10">
<rect id="Rectangle 100" width="81" height="27" transform="matrix(-1 0 0 1 162 108)" fill="black"/>
</g>
<g id="GSCORE2">
<rect id="Rectangle 71" width="27" height="54" transform="matrix(-1 0 0 1 81 178)" fill="black"/>
</g>
<g id="GSCORE5">
<path id="Vector 3" d="M27 354V327H216V354H176V381H149V354H91V381H64V354H27Z" fill="black"/>
</g>
<g id="GSCORE4">
<rect id="Rectangle 65" width="27" height="68" transform="matrix(-1 0 0 1 27 286)" fill="black"/>
</g>
<g id="GSCORE3">
<rect id="Rectangle 59" width="27" height="54" transform="matrix(-1 0 0 1 54 232)" fill="black"/>
</g>
<g id="DFILL">
<path id="Vector 4" d="M27 286V327H216V286H189V232H162V178H81V232H54V286H27Z" fill="white" stroke="white"/>
</g>
</g>
</svg>
